<svg width="70" height="70" viewBox="0 0 70 70" fill="none" xmlns="http://www.w3.org/2000/svg">
<g id="power_settings_new_24px">
<path id="icon/action/power_settings_new_24px" fill-rule="evenodd" clip-rule="evenodd" d="M32.0833 8.75H37.9167V37.9167H32.0833V8.75ZM47.8625 19.2209L52.0042 15.0792C57.6625 19.8917 61.25 27.0084 61.25 35C61.25 49.4959 49.4958 61.25 35 61.25C20.5042 61.25 8.75 49.4959 8.75 35C8.75 27.0084 12.3375 19.8917 17.9958 15.0792L22.1083 19.1917C17.5292 22.925 14.5833 28.6125 14.5833 35C14.5833 46.2875 23.7125 55.4167 35 55.4167C46.2875 55.4167 55.4167 46.2875 55.4167 35C55.4167 28.6125 52.4708 22.925 47.8625 19.2209Z" fill="#333333"/>
</g>
</svg>
